<svg width="512" height="512" viewBox="0 0 512 512" fill="none" xmlns="http://www.w3.org/2000/svg">
<path d="M255.998 0C114.617 0 0 114.614 0 255.995C0 397.383 114.617 511.988 255.998 511.988C397.395 511.988 512 397.383 512 255.995C512 114.624 397.395 0.0122277 255.995 0.0122277L255.998 0ZM373.398 369.219C368.812 376.739 358.969 379.123 351.449 374.507C291.343 337.793 215.677 329.478 126.567 349.838C117.98 351.794 109.421 346.414 107.464 337.824C105.499 329.234 110.857 320.674 119.466 318.718C216.983 296.439 300.63 306.032 368.109 347.27C375.629 351.886 378.014 361.699 373.398 369.219ZM404.731 299.514C398.954 308.905 386.665 311.87 377.28 306.093C308.468 263.797 203.575 251.548 122.183 276.254C111.628 279.442 100.479 273.493 97.2753 262.956C94.0961 252.4 100.048 241.273 110.585 238.063C203.556 209.854 319.137 223.518 398.159 272.078C407.544 277.856 410.509 290.142 404.731 299.514ZM407.422 226.93C324.914 177.924 188.788 173.418 110.014 197.326C97.364 201.163 83.9867 194.022 80.1533 181.372C76.3199 168.716 83.4548 155.348 96.1137 151.503C186.541 124.051 336.867 129.355 431.859 185.747C443.261 192.499 446.991 207.194 440.235 218.557C433.51 229.935 418.775 233.686 407.434 226.93H407.422Z" fill="#E7F6F2"/>
</svg>
