<svg width="55" height="55" viewBox="0 0 55 55" fill="none" xmlns="http://www.w3.org/2000/svg">
<g clip-path="url(#clip0_10_32)">
<path d="M51.3959 50.223L49.9477 50.1379C49.7791 48.7702 49.3176 47.8476 49.2821 47.7785C49.2805 47.7757 49.2787 47.7731 49.2773 47.7702C49.2674 47.7512 49.256 47.7328 49.2449 47.7143C49.2362 47.6997 49.2281 47.6849 49.2188 47.6709C49.21 47.6576 49.2003 47.6452 49.191 47.6324C49.178 47.6145 49.1655 47.5964 49.1518 47.5795C49.1459 47.5722 49.1392 47.5655 49.1331 47.5583C49.1151 47.5374 49.0973 47.5166 49.0781 47.4972C49.0708 47.4899 49.0627 47.4833 49.0554 47.476C49.0368 47.4582 49.0182 47.4404 48.9985 47.4239C48.8291 47.2819 48.6169 47.1875 48.3804 47.1637L45.704 46.8933V19.4245C45.704 19.2322 45.6555 19.043 45.5629 18.8745L44.1917 16.3774L45.5629 13.8801C45.6554 13.7116 45.704 13.5224 45.704 13.3301V8.05888L47.9514 7.83522C47.9592 7.83446 47.9666 7.83263 47.9741 7.83187C47.989 7.83004 48.0033 7.82761 48.0181 7.82532C48.0527 7.81984 48.0868 7.81268 48.1205 7.8043C48.1318 7.8014 48.1431 7.79881 48.1545 7.79561C48.2459 7.76941 48.3317 7.73223 48.4117 7.68576C48.422 7.67967 48.4322 7.67327 48.4426 7.66687C48.4738 7.64737 48.504 7.62634 48.5331 7.60395C48.5421 7.59709 48.5514 7.59085 48.5602 7.58368C48.5948 7.5555 48.6272 7.52533 48.6583 7.49334C48.6679 7.48328 48.6772 7.47247 48.6865 7.46195C48.71 7.4359 48.7324 7.40863 48.7534 7.38044C48.7613 7.36978 48.7694 7.35957 48.777 7.34845C48.804 7.3096 48.8287 7.26922 48.8504 7.22717C48.8518 7.22473 48.8536 7.2226 48.8547 7.22016C48.8901 7.15099 49.3517 6.22848 49.5204 4.86077L50.9685 4.77561C51.5985 4.73858 52.0792 4.19787 52.0422 3.56788C52.0051 2.93789 51.4661 2.45674 50.8343 2.49422L49.4715 2.57436C49.3695 1.97926 49.1888 1.35445 48.8992 0.716684C48.8981 0.714246 48.8969 0.711961 48.896 0.709675C48.8887 0.693526 48.8823 0.677528 48.8748 0.661379C48.8721 0.655437 48.8686 0.650104 48.8658 0.644315C48.8552 0.622375 48.8437 0.601045 48.8319 0.579868C48.8244 0.566765 48.8169 0.553815 48.8093 0.541169C48.7982 0.523344 48.7866 0.505975 48.7744 0.488911C48.7642 0.47398 48.7537 0.459354 48.7427 0.445033C48.7324 0.431321 48.7212 0.418218 48.7101 0.405115C48.6966 0.389118 48.6829 0.373273 48.6687 0.358037C48.6588 0.347525 48.6483 0.337317 48.6379 0.327261C48.6218 0.311264 48.6055 0.295723 48.5885 0.280945C48.578 0.271804 48.5671 0.263272 48.5562 0.254435C48.5387 0.240266 48.5212 0.226249 48.5028 0.213299C48.4906 0.204462 48.4778 0.196387 48.4651 0.188008C48.4478 0.176581 48.4302 0.165154 48.4121 0.154642C48.397 0.145957 48.3818 0.138035 48.3663 0.12996C48.35 0.121428 48.3333 0.112744 48.3167 0.104973C48.2992 0.0968986 48.2812 0.0895855 48.2631 0.0824247C48.2473 0.0760258 48.2316 0.0696268 48.2156 0.0639896C48.1968 0.0574383 48.1778 0.0518011 48.1587 0.0461639C48.1423 0.0412885 48.1257 0.0365655 48.1089 0.0322995C48.0908 0.0278812 48.0724 0.0242246 48.0539 0.0207205C48.0352 0.0170639 48.0164 0.0135597 47.9974 0.0109697C47.9811 0.00868431 47.9645 0.00700839 47.948 0.00548483C47.9259 0.00319948 47.904 0.00167592 47.8819 0.000761781C47.8679 0.000152356 47.8534 0 47.8389 0C47.8147 0 47.7905 0.000609425 47.7661 0.00213299C47.7594 0.00259006 47.7529 0.00228534 47.7462 0.00274241L7.14124 3.27962C6.66772 3.31771 6.28515 3.63964 6.14666 4.06486C6.01701 4.37918 5.69523 5.25324 5.55735 6.46554L3.53771 6.70307C2.91092 6.77681 2.46269 7.34464 2.53643 7.97143C2.60483 8.55282 3.09847 8.98064 3.66996 8.98064C3.71445 8.98064 3.75954 8.97805 3.80494 8.97272L5.56314 8.76597C5.65455 9.52013 5.84301 10.3273 6.17424 11.1606C6.19465 11.2122 6.21933 11.2613 6.24661 11.3086C6.25087 11.3161 6.25514 11.3237 6.25956 11.3312C6.28546 11.374 6.31395 11.4148 6.34518 11.4537C6.35204 11.4624 6.35935 11.4704 6.36651 11.4788C6.39652 11.5142 6.42806 11.5478 6.46219 11.5792C6.46569 11.5824 6.46889 11.5861 6.47255 11.5894C6.50896 11.622 6.54797 11.6516 6.58834 11.6795C6.59718 11.6856 6.60571 11.6917 6.6147 11.6975C6.65584 11.7241 6.69834 11.7485 6.74268 11.7698C6.74877 11.7727 6.75502 11.7753 6.76111 11.7781C6.80499 11.7982 6.85009 11.8158 6.89671 11.8303C6.90067 11.8315 6.90448 11.8332 6.90844 11.8343C6.95613 11.8486 7.00519 11.8594 7.05501 11.8673C7.06522 11.869 7.07542 11.8704 7.08578 11.8718C7.13408 11.8781 7.18284 11.8826 7.2325 11.8827C7.23418 11.8827 7.23586 11.883 7.23753 11.883C7.27501 11.883 7.31264 11.8807 7.35043 11.8771L9.22548 11.6904V31.3081C9.22548 31.4544 9.25351 31.5991 9.30805 31.7347L10.4149 34.4854L9.32405 36.9382C9.25915 37.0844 9.22548 37.2426 9.22548 37.4025V43.2072L7.49105 43.032C6.91057 42.9734 6.38632 43.3621 6.26199 43.9191C5.96185 44.7121 5.78832 45.48 5.70422 46.1991L4.23291 46.0261C3.60505 45.9514 3.03829 46.4007 2.96455 47.0273C2.89081 47.6541 3.33904 48.222 3.96583 48.2957L5.70635 48.5005C5.86693 49.8653 6.25864 50.7927 6.33436 50.9622C6.33558 50.9651 6.33695 50.9682 6.33832 50.9711C6.34107 50.977 6.34381 50.9833 6.34518 50.9863C6.34716 50.9907 6.35006 50.9945 6.35219 50.999C6.37154 51.0395 6.39348 51.0785 6.4174 51.1163C6.42303 51.1254 6.42837 51.1346 6.43431 51.1434C6.46067 51.1826 6.48931 51.22 6.52024 51.2555C6.52831 51.2647 6.53669 51.2731 6.54507 51.282C6.57158 51.3107 6.59946 51.3378 6.62887 51.3636C6.63664 51.3704 6.64426 51.3776 6.65218 51.3841C6.69011 51.4157 6.73003 51.4449 6.77208 51.4714C6.77345 51.4722 6.77483 51.4729 6.77635 51.474C6.81962 51.501 6.86517 51.5249 6.91225 51.5462C6.91316 51.5467 6.91423 51.5471 6.9153 51.5476C7.03048 51.5991 7.15556 51.6335 7.28857 51.6445L48.1729 54.9963C48.1959 54.9982 48.2188 54.9986 48.2415 54.9992C48.2495 54.9994 48.2575 55.0005 48.2655 55.0005C48.2675 55.0005 48.2694 55 48.2712 55C48.3183 54.9998 48.3641 54.996 48.4098 54.9902C48.4208 54.9889 48.4319 54.9872 48.443 54.9854C48.5393 54.9703 48.6317 54.9435 48.7191 54.9057C48.7283 54.9017 48.7374 54.8976 48.7465 54.8933C48.789 54.8735 48.8308 54.8521 48.8704 54.8274C48.8728 54.8259 48.8753 54.8242 48.8777 54.8227C48.9155 54.7987 48.9511 54.7721 48.9857 54.7439C48.9966 54.7351 49.0072 54.7262 49.0177 54.7172C49.0519 54.6874 49.0846 54.656 49.1152 54.6223C49.121 54.6159 49.1261 54.6089 49.1317 54.6023C49.1596 54.5702 49.1853 54.5362 49.2094 54.501C49.2149 54.493 49.2205 54.4852 49.2258 54.477C49.2531 54.4349 49.2775 54.3909 49.299 54.3452C49.3002 54.3426 49.3019 54.3406 49.3029 54.338C49.6075 53.6809 49.7946 53.0372 49.8994 52.4249L51.2622 52.505C51.2851 52.5064 51.3078 52.507 51.3303 52.507C51.9306 52.507 52.4343 52.0385 52.47 51.4314C52.5065 50.8008 52.0259 50.26 51.3959 50.223ZM8.21429 49.427C7.98834 48.6285 7.71532 47.1188 8.18016 45.3987L47.4585 49.3675C47.6724 50.0437 47.9147 51.2688 47.5038 52.6481L8.21429 49.427ZM8.03146 9.51282C7.57195 7.79759 7.84513 6.29292 8.07046 5.49747L47.076 2.34964C47.4872 3.72861 47.2454 4.95371 47.0313 5.63033L8.03146 9.51282ZM11.5102 37.6451L12.699 34.972C12.8247 34.6894 12.8304 34.3681 12.715 34.081L11.5102 31.0869V11.463L43.4185 8.2865V13.0371L41.8862 15.8274C41.6982 16.1699 41.6982 16.5849 41.8862 16.9274L43.4185 19.7175V46.6623L11.5102 43.438V37.6451Z" fill="white"/>
<path d="M38.2923 15.9561H16.0666C15.4355 15.9561 14.9239 16.4677 14.9239 17.0987C14.9239 17.7298 15.4355 18.2414 16.0666 18.2414H38.2923C38.9235 18.2414 39.435 17.7298 39.435 17.0987C39.435 16.4677 38.9235 15.9561 38.2923 15.9561Z" fill="white"/>
<path d="M38.2923 22.8423H16.0666C15.4355 22.8423 14.9239 23.3539 14.9239 23.985C14.9239 24.616 15.4355 25.1276 16.0666 25.1276H38.2923C38.9235 25.1276 39.435 24.616 39.435 23.985C39.435 23.3539 38.9235 22.8423 38.2923 22.8423Z" fill="white"/>
<path d="M38.2923 29.7285H16.0666C15.4355 29.7285 14.9239 30.2401 14.9239 30.8712C14.9239 31.5022 15.4355 32.0139 16.0666 32.0139H38.2923C38.9235 32.0139 39.435 31.5022 39.435 30.8712C39.435 30.2401 38.9235 29.7285 38.2923 29.7285Z" fill="white"/>
<path d="M38.2923 36.6147H16.0666C15.4355 36.6147 14.9239 37.1264 14.9239 37.7574C14.9239 38.3885 15.4355 38.9001 16.0666 38.9001H38.2923C38.9235 38.9001 39.435 38.3885 39.435 37.7574C39.435 37.1264 38.9235 36.6147 38.2923 36.6147Z" fill="white"/>
</g>
<defs>
<clipPath id="clip0_10_32">
<rect width="55" height="55" fill="white"/>
</clipPath>
</defs>
</svg>
